<svg xmlns="http://www.w3.org/2000/svg" xmlns:xlink="http://www.w3.org/1999/xlink" width="64" height="64" viewBox="0 0 64 64">
  <defs>
    <clipPath id="clip-Custom_Size_1">
      <rect width="64" height="64"/>
    </clipPath>
  </defs>
  <g id="Custom_Size_1" data-name="Custom Size – 1" clip-path="url(#clip-Custom_Size_1)">
    <rect width="64" height="64" fill="#fff"/>
    <g id="Group_1" data-name="Group 1">
      <g id="Rectangle_1" data-name="Rectangle 1" transform="translate(7 6)" stroke="#000" stroke-width="1">
        <rect width="51" height="53" rx="12" stroke="none"/>
        <rect x="0.5" y="0.5" width="50" height="52" rx="11.5" fill="none"/>
      </g>
      <path id="Path_1" data-name="Path 1" d="M25.124-495.582a10.587,10.587,0,0,0-8.36,7.773l-.264.966v37.371l.264.966a10.617,10.617,0,0,0,7.635,7.624l.954.264H44.039c17.432,0,18.743-.011,19.467-.207a10.723,10.723,0,0,0,7.808-7.693l.264-.954v-37.371l-.264-.966a10.707,10.707,0,0,0-7.589-7.635l-.885-.253-18.455-.023C29.643-495.732,25.768-495.709,25.124-495.582Zm37.566,3.726a6.8,6.8,0,0,1,5.048,5.048c.207.839.218,1.437.218,18.651s-.011,17.811-.218,18.651a6.8,6.8,0,0,1-5.048,5.048c-.839.207-1.437.219-18.651.219-17.34,0-17.811,0-18.674-.23a6.833,6.833,0,0,1-5.071-5.232c-.161-.713-.172-2.875-.149-18.858l.034-18.053.241-.632a6.829,6.829,0,0,1,2.852-3.691A7.7,7.7,0,0,1,25.7-491.96c.253-.046,8.486-.092,18.294-.1C61.276-492.075,61.851-492.064,62.69-491.857Z" transform="translate(-11.664 500.171)"/>
      <path id="Path_2" data-name="Path 2" d="M96.667-415.816c-.678.356-.667.264-.667,7.072,0,6.071.012,6.255.241,6.727a1.654,1.654,0,0,0,1.6.989,1.654,1.654,0,0,0,1.6-.989c.23-.46.241-.678.241-4.105v-3.611l13.4,13.4,13.4,13.4-3.7.057c-4.14.069-4.209.081-4.691.862a1.808,1.808,0,0,0,.736,2.576c.471.23.655.241,6.727.241,6.842,0,6.715.012,7.083-.69.149-.287.173-1.219.173-6.566,0-6.071-.012-6.255-.241-6.727a1.8,1.8,0,0,0-3.208-.035c-.218.414-.23.69-.23,4.094v3.657l-13.4-13.4-13.4-13.4,3.7-.057c3.565-.058,3.726-.069,4.117-.31a1.7,1.7,0,0,0,.828-1.529,1.671,1.671,0,0,0-.989-1.6c-.471-.23-.644-.241-6.75-.241C97.92-415.988,96.931-415.965,96.667-415.816Z" transform="translate(-82.023 429.615)" fill="#fff"/>
    </g>
  </g>
</svg>
