<?xml version="1.0" ?><svg enable-background="new 0 0 52 52" id="Layer_1" version="1.1" viewBox="0 0 52 52" xml:space="preserve" xmlns="http://www.w3.org/2000/svg" xmlns:xlink="http://www.w3.org/1999/xlink"><g><g><path d="M25.7700195,2.2557983L5.2600098,25.0758057l1.4799805,1.3400269l1.7399902-1.9299927v16.2600098h14.5205688v-7.1159058    c-3.3525391-1.2412109-5.7138672-4.4951172-5.7138672-8.171875c0-4.8051758,3.9091797-8.7143555,8.7138672-8.7143555    c4.8056641,0,8.7148438,3.9091797,8.7148438,8.7143555c0,3.6767578-2.3613281,6.9306641-5.7148438,8.171875v6.2568359h3.2861328    v0.8590698h11.2333374V24.5258179l1.7399902,1.8900146l1.4799805-1.3499756L25.7700195,2.2557983z"/></g><g><path d="M27.0005493,43.8867798h3.2861328v-2h-3.2861328v-9.7967529    c3.2284546-0.4855957,5.7148438-3.2704468,5.7148438-6.631958c0-3.7021484-3.0126953-6.7143555-6.7148438-6.7143555    s-6.7138672,3.012207-6.7138672,6.7143555c0,3.3614502,2.4855957,6.1463623,5.7138672,6.631958v17.6541748h2V47.600647h4v-2h-4    V43.8867798z M26.0005493,30.1724243c-2.5996094,0-4.7138672-2.1147461-4.7138672-4.7143555    s2.1142578-4.7143555,4.7138672-4.7143555s4.7148438,2.1147461,4.7148438,4.7143555S28.6001587,30.1724243,26.0005493,30.1724243z    " fill="#3A92CC"/></g></g></svg>